<?xml version="1.0" encoding="utf-8"?>
<!-- Generator: Adobe Illustrator 25.0.0, SVG Export Plug-In . SVG Version: 6.00 Build 0)  -->
<svg version="1.1" id="Layer_1" xmlns="http://www.w3.org/2000/svg" xmlns:xlink="http://www.w3.org/1999/xlink" x="0px" y="0px"
	 viewBox="0 0 500 392" style="enable-background:new 0 0 500 392;" xml:space="preserve">
<g>
	<g>
		<g>
			<rect x="36.07" y="349.55" width="66.69" height="0.97"/>
			<rect x="398.07" y="349.55" width="66.87" height="0.97"/>
		</g>
		<g>
			<path d="M133.53,350.91c0.81,1.21,1.56,2.61,1.56,2.61h0.09c0,0-0.12-1.47-0.12-3.19v-7.27h2.15v13.73h-2.12l-5.48-7.83
				c-0.86-1.23-1.58-2.66-1.58-2.66h-0.09c0,0,0.14,1.47,0.14,3.24v7.25h-2.15v-13.73h2.19L133.53,350.91z"/>
			<path d="M160.01,356.78h-8.46v-13.73h8.46v1.87h-6.31v4.05h5.59v1.87h-5.59v4.08h6.31V356.78z"/>
			<path d="M184.74,351.65c0.54,2.14,0.75,3.7,0.75,3.7h0.09c0,0,0.19-1.59,0.7-3.68l2.17-8.62h2.17l-3.57,13.73H184l-2.1-8.08
				c-0.56-2.12-0.58-3.68-0.58-3.68h-0.09c0,0-0.09,1.54-0.63,3.68l-2.08,8.08h-3.05l-3.54-13.73h2.28l2.14,8.55
				c0.51,2.12,0.72,3.75,0.72,3.75h0.09c0,0,0.16-1.61,0.72-3.73l2.21-8.58h2.49L184.74,351.65z"/>
			<path d="M221.55,353.19c-0.77,1.14-1.33,1.7-1.33,1.7v0.09c0,0,0.58-0.07,2-0.07h5.31v1.87H217.5v-1.28l5.89-8.85
				c0.75-1.14,1.33-1.7,1.33-1.7v-0.09c0,0-0.61,0.07-2,0.07h-4.94v-1.87h9.65v1.44L221.55,353.19z"/>
			<path d="M248.92,356.78h-8.46v-13.73h8.46v1.87h-6.31v4.05h5.59v1.87h-5.59v4.08h6.31V356.78z"/>
			<path d="M269.95,353.03h-5.61l-1.31,3.75h-2.24l5.01-13.73h2.82l4.96,13.73h-2.31L269.95,353.03z M264.94,351.26h4.38l-1.05-3.07
				c-0.77-2.15-1.07-3.61-1.07-3.61h-0.09c0,0-0.33,1.44-1.07,3.59L264.94,351.26z"/>
			<path d="M288.36,343.05v11.86h6.15v1.87h-8.3v-13.73L288.36,343.05L288.36,343.05z"/>
			<path d="M314.89,353.03h-5.61l-1.31,3.75h-2.24l5.01-13.73h2.82l4.96,13.73h-2.31L314.89,353.03z M309.88,351.26h4.38l-1.05-3.07
				c-0.77-2.15-1.07-3.61-1.07-3.61h-0.09c0,0-0.33,1.44-1.07,3.59L309.88,351.26z"/>
			<path d="M338.76,350.91c0.81,1.21,1.56,2.61,1.56,2.61h0.09c0,0-0.12-1.47-0.12-3.19v-7.27h2.15v13.73h-2.12l-5.48-7.83
				c-0.86-1.23-1.58-2.66-1.58-2.66h-0.09c0,0,0.14,1.47,0.14,3.24v7.25h-2.15v-13.73h2.19L338.76,350.91z"/>
			<path d="M356.78,356.78v-13.73h4.27c3.85,0,6.62,1.89,6.62,6.71c0,5.08-3.03,7.02-6.69,7.02L356.78,356.78L356.78,356.78z
				 M360.76,354.99c2.7,0,4.64-1.44,4.64-5.13c0-3.85-2-5.01-4.43-5.01h-2.05v10.14H360.76z"/>
		</g>
		<g>
			<path d="M61.58,302.09v-16.5H40.54v16.5h-4.47v-35.98h4.47v15.48h21.04v-15.48h4.48v35.98H61.58z"/>
			<path d="M85.24,302.09v-35.98h23.57v3.99h-19.1v11.6h18.72v3.99H89.72v12.4h19.1v3.99H85.24V302.09z"/>
			<path d="M147.53,302.09l-9.17-14.29h-7.17v14.29h-4.47v-35.98h14.46c6.58,0,11.27,4.21,11.27,10.84c0,6.47-4.42,10.03-9.33,10.46
				l9.71,14.67h-5.3V302.09z M147.8,276.96c0-4.05-2.91-6.85-7.17-6.85h-9.44v13.75h9.44C144.88,283.86,147.8,281,147.8,276.96z"/>
			<path d="M168.81,284.13c0-10.63,7.17-18.61,17.85-18.61c10.63,0,17.85,7.98,17.85,18.61s-7.23,18.61-17.85,18.61
				C175.99,302.74,168.81,294.76,168.81,284.13z M199.88,284.13c0-8.41-5.18-14.62-13.21-14.62c-8.09,0-13.21,6.21-13.21,14.62
				c0,8.36,5.12,14.62,13.21,14.62C194.71,298.75,199.88,292.49,199.88,284.13z"/>
			<path d="M247,302.09v-35.98h23.57v3.99h-19.1v11.6h18.72v3.99h-18.72v16.4L247,302.09L247,302.09z"/>
			<path d="M285.98,284.13c0-10.63,7.17-18.61,17.85-18.61c10.63,0,17.85,7.98,17.85,18.61s-7.23,18.61-17.85,18.61
				C293.15,302.74,285.98,294.76,285.98,284.13z M317.04,284.13c0-8.41-5.18-14.62-13.21-14.62c-8.09,0-13.21,6.21-13.21,14.62
				c0,8.36,5.12,14.62,13.21,14.62C311.87,298.75,317.04,292.49,317.04,284.13z"/>
			<path d="M338.01,284.13c0-10.63,7.17-18.61,17.85-18.61c10.63,0,17.85,7.98,17.85,18.61s-7.23,18.61-17.85,18.61
				C345.18,302.74,338.01,294.76,338.01,284.13z M369.07,284.13c0-8.41-5.18-14.62-13.21-14.62c-8.09,0-13.21,6.21-13.21,14.62
				c0,8.36,5.12,14.62,13.21,14.62C363.9,298.75,369.07,292.49,369.07,284.13z"/>
			<path d="M391.5,302.09v-35.98h12.3c11.17,0,18.45,7.82,18.45,18.02c0,10.25-7.28,17.96-18.45,17.96L391.5,302.09L391.5,302.09z
				 M417.6,284.13c0-7.77-4.91-14.02-13.81-14.02h-7.82v27.99h7.82C412.53,298.1,417.6,291.85,417.6,284.13z"/>
			<path d="M437.87,297.02l2.65-3.4c2.37,2.65,6.26,5.13,11.32,5.13c6.42,0,8.47-3.45,8.47-6.2c0-9.28-21.31-4.15-21.31-16.99
				c0-5.94,5.29-9.98,12.35-9.98c5.5,0,9.77,1.83,12.79,5.01l-2.7,3.29c-2.7-2.97-6.48-4.32-10.41-4.32c-4.32,0-7.39,2.32-7.39,5.72
				c0,8.09,21.31,3.45,21.31,16.88c0,5.23-3.56,10.57-13.27,10.57C445.42,302.74,440.83,300.37,437.87,297.02z"/>
		</g>
	</g>
	<g>
		<path d="M344.22,171.93c-1.62-0.03-3.29-0.07-5,0.08c-4.05,0.36-7.56,1.25-10.65,2.72l0.35-1.36c1.06-1.84,1.92-3.45,2.16-4.1
			c0.1-0.29,0.42-1.13,0.86-2.28l4.21-0.98c5.26-1.22,9.71-2.92,13.6-5.2l11.71-6.86l-15.16,2.46c-4.17,0.61-8.87,1.32-12.42,5.27
			c0.83-2.32,1.73-4.93,2.57-7.53l0.28-0.13l4.21-1.96c4.62-2.11,9.4-4.29,12.63-9.13l4.59-6.89l-7.66,3.16
			c-4.12,1.7-8.35,3.65-11.8,6.9c0.49-2.2,0.34-2.01,0.5-3.33c0,0,4.93-3.48,3.83-13.84l-1.32-9.07l-3.66,8.84
			c-1.02,2.45-2.13,5.23-2.02,8.89c0.2,3.35,1.64,5.45,1.64,5.45c-0.37,1.15-0.78,2.52-1.2,3.94c-0.45-3.37-1.51-6.49-3.27-9.29
			l-4.51-7.18l-0.15,8.47c-0.09,5.1,1.08,9.33,3.6,12.91c0,0,1.08,1.76,2.27,2.45l-0.31,0.9c-0.07,0.24-0.13,0.44-0.17,0.53
			c-0.37,1.03-1.58,3.98-2.94,7.23c0.18-2.09,0.2-4.12-0.05-6.07c-0.01-0.06-0.03-0.33-0.09-0.7c-0.35-2.19-0.97-4.32-1.87-6.46
			l-3-7.11l-1.78,7.5c-1.61,6.77-1.31,13.12,0.92,19.4l1.37,3.85c-0.17,0.36-0.3,0.63-0.37,0.75c-0.79,1.27-3.11,4.49-5.47,7.7
			c0.9-7.44-0.32-17.29-3.81-21.54l-5.35-6.53l0.89,8.4c0.38,3.64,0.2,7.27,0.03,10.77c-0.11,2.16-0.21,4.29-0.2,6.43l-0.01,0.88
			c-0.03,2.54-0.07,6.01,2.92,8.67l0.14,0.12c-0.36,0.47-0.62,0.79-0.69,0.87c-2.39,2.58-4.84,5.09-7.92,7.42
			c0.03-0.31,0.89-1.76,0.75-3.43c0.11-0.36,0.19-0.77,0.18-1.26c0.85-7.87-0.51-15.3-4.04-22.09l-4.32-8.31l-0.65,13.45
			c-0.17,3.3-0.35,6.6-0.4,9.91c-0.06,3.53,1.04,6.66,3.19,9.04l0,0c1.05,1.16,2.1,1.49,2.94,1.49c0.15,0,0.23-0.05,0.37-0.07
			c-0.21,0.72-0.38,1.36-0.41,1.48c-0.62,2.65-2.69,4.01-4.76,5.39c-3.42,2.28-6.94,4.39-10.64,6.19c-0.7,0.34-1.74,0.65-1.3,1.74
			c0.55,1.38,1.55,0.45,2.3,0.2c0.77-0.26,1.43-0.8,2.18-1.13c3.39-1.45,6.63-3.47,9.58-5.6l0.59,1.08
			c2.27,4.12,5.71,6.21,10.24,6.21c0.01,0,0.02,0,0.03,0c2.99-0.01,5.76-0.74,8.44-1.45c2.26-0.6,4.59-1.22,7.08-1.4l9.11-0.67
			l-8.16-4.1c-7.82-3.93-15.29-4.78-23.31-2.73c4.1-3.35,7.24-6.49,8.7-7.73c0.18-0.15,0.97-1.07,2.01-2.33
			c-0.03,0.26-0.04,0.49-0.03,0.68c0.1,1.89,1.38,3.13,3.79,3.69c1.92,0.44,3.8,0.61,5.66,0.61c3.19,0,6.29-0.5,9.33-0.99
			l10.48-1.62l-7.91-3.49c-6.19-2.74-11.82-3.39-17.18-2.03l0,0c-0.33,0.04-1.25,0.22-1.53,0.29l0.12-0.27
			c0.06-0.13,0.11-0.29,0.17-0.43c1.91-2.37,3.81-4.77,4.53-5.77c0.08-0.11,0.32-0.49,0.64-1.01c0.43,0.73,1.15,1.34,2.22,1.8
			c1.34,0.57,2.7,0.86,4.06,0.86c1.01,0,2.01-0.15,3.02-0.46c3.46-1.06,6.61-2.71,9.65-4.29c1.32-0.69,2.64-1.38,3.98-2.02
			l10.09-4.8H346.3C345.61,171.96,344.92,171.95,344.22,171.93z M348.48,158.61c-4.05,2.37-8.39,3.88-12.9,4.92
			C338.98,159.57,343.86,159.37,348.48,158.61z M340.55,129.29c0.43,2.93,0.58,7.24-1.78,10.15
			C338.14,133.55,339.48,131.87,340.55,129.29z M351.48,141.52c-3.22,4.83-8.45,6.75-13.41,9.07
			C341.42,145.96,346.34,143.63,351.48,141.52z M331.07,139.02c2.19,3.49,3.15,7.32,3.14,11.42
			C331.81,147.01,330.99,143.14,331.07,139.02z M304.66,193.54c-0.61,0.24-1.06-0.19-1.42-0.58c-1.87-2.07-2.59-4.63-2.55-7.31
			c0.07-4.65,0.39-9.29,0.61-13.93c3.41,6.55,4.55,13.43,3.77,20.65C305.03,192.78,305.2,193.33,304.66,193.54z M327.82,206.25
			c-5.72,0.42-10.27,2.84-15.33,2.84c-3.64,0.01-6.23-1.6-8.05-4.9C312.33,201.74,319.8,202.23,327.82,206.25z M316.8,187.03
			c-2.41-2.14-2.05-5.09-2.07-7.67c-0.03-5.7,0.8-11.39,0.16-17.46C318.63,166.47,319.62,180.85,316.8,187.03z M320.72,190.59
			c5.52-1.52,10.79-0.47,15.94,1.8c-5.31,0.81-10.58,1.96-15.98,0.72c-0.83-0.19-1.78-0.45-1.83-1.36
			C318.79,190.58,320.04,190.77,320.72,190.59z M326.67,150.74c2.66,6.31,2.35,12.11,0.85,17.97
			C325.49,163.02,325.12,157.25,326.67,150.74z M333.01,180.65c-1.83,0.56-3.61,0.44-5.35-0.3c-1.45-0.62-1.57-1.31-0.14-2.19
			c3.67-2.26,7.72-3.27,11.93-3.65c2.26-0.2,4.56-0.04,6.85-0.04C341.87,176.58,337.71,179.21,333.01,180.65z"/>
		<g>
			<path d="M253.56,64.61c6.28,2.51,13.57-0.26,16.08-6.53c1.76-4.27,0.76-10.31-2.01-13.82c-1.76-2.76-8.79-7.79-17.84-9.04v3.27
				c4.02,0.99,5.78,3.76,3.76,4.26c-2.76,0.76-5.28,2.76-6.53,6.03C244.52,55.07,247.28,62.1,253.56,64.61z"/>
			<path d="M226.18,200.27v-91.44v-3.27c0-41.46,3.76-60.8,10.55-66.83v-3.27c-22.47,3.25-32.28,20.67-32.4,69.22v-3.65
				c0,12.06-0.25,16.34-9.8,18.35l0,0h-0.01v3.01h0.01l0,0c9.08,1.92,9.75,5.96,9.79,16.73v61.15c0,12.06-0.25,16.34-9.8,18.35v3.01
				h43.97v-3.01C229.44,216.85,226.18,213.34,226.18,200.27z"/>
			<path d="M294.82,198.27v-54.51c0-30.16-14.07-40.45-34.67-40.45c-11.31,0-24.12,6.78-31.91,15.58l2.51,4.02
				c4.52-4.02,10.05-6.78,16.08-6.78c17.58,0,26.13,10.55,26.13,28.63v53.52c0,12.81-0.5,17.59-10.05,20.35v3.01h42.21v-3.01
				C296.32,216.35,294.82,212.09,294.82,198.27z"/>
		</g>
	</g>
</g>
</svg>
