<?xml version="1.0" encoding="utf-8"?>
<!-- Generator: Adobe Illustrator 25.0.0, SVG Export Plug-In . SVG Version: 6.00 Build 0)  -->
<svg version="1.1" id="Layer_1" xmlns="http://www.w3.org/2000/svg" xmlns:xlink="http://www.w3.org/1999/xlink" x="0px" y="0px"
	 viewBox="0 0 150 150" style="enable-background:new 0 0 150 150;" xml:space="preserve">
<style type="text/css">
	.st0{fill:#D3E1E1;}
</style>
<g id="o4TAxe_2_">
	<g>
		<path class="st0" d="M70.5,49.69c0-1.65,0-3.25,0-4.9c-0.27,0-0.54,0-0.8,0c-4.52,0-9.04,0.01-13.56,0.01
			c-0.43,0-0.68-0.15-0.76-0.46c-0.08-0.3,0-0.57,0.28-0.72c0.16-0.08,0.36-0.09,0.55-0.1c1.76-0.01,3.53,0,5.29,0
			c6.37,0,12.75,0,19.12,0c6.65,0,13.3,0,19.96,0c2.98,0,5.96-0.03,8.94,0.02c3.07,0.05,5.78,2.51,6.21,5.55
			c0.07,0.47,0.08,0.96,0.08,1.43c0.01,6.24,0,12.48,0,18.72c0,5.66,0,11.32,0,16.97c0,4.55,0,9.11,0,13.66
			c0,3.35-2.42,6.12-5.75,6.55c-0.62,0.08-1.25,0.06-1.87,0.06c-9.87,0-19.73,0-29.6,0c-6.63,0-13.26,0-19.89,0
			c-5.98,0-11.96,0-17.95,0c-3.32,0-6.15-2.55-6.52-5.84c-0.03-0.23-0.03-0.47-0.03-0.7c0-4.79,0-9.58,0-14.37
			c0-3.18-0.01-6.36-0.01-9.54c0-1.89,0.02-3.77,0.02-5.66c0-3.25-0.02-6.49-0.02-9.74c0-3.49-0.01-6.99,0-10.48
			c0.01-3.11,2.02-5.7,5.03-6.44c0.64-0.16,1.32-0.19,1.99-0.19c3.23-0.02,6.45,0,9.68,0c0.52,0,0.8,0.22,0.8,0.63
			c0,0.4-0.3,0.63-0.81,0.63c-2.9,0-5.8-0.01-8.71,0.01c-0.84,0-1.71-0.02-2.53,0.14c-2.37,0.47-4.09,2.58-4.17,5
			c-0.01,0.27,0,0.54,0,0.8c0,6.09,0,12.19,0,18.28c0,9.93,0,19.86,0.01,29.8c0,0.75,0,1.53,0.15,2.26
			c0.49,2.39,2.69,4.13,5.14,4.13c4.22,0,8.44,0,12.66,0c5.52,0,11.05,0,16.57,0c0.15,0,0.31,0,0.49,0c0-1.64,0-3.25,0-4.9
			c-0.55,0-1.08,0-1.61,0c-6.63,0-13.26,0-19.89,0c-1.86,0-3.73,0-5.59,0.01c-1.82,0-3.11-1.27-3.11-3.08c0-10.96,0-21.92,0-32.88
			c0-3.84,0-7.68,0-11.52c0-1.89,1.26-3.15,3.14-3.15c2.89,0,5.78,0,8.67,0c5.98,0,11.96,0,17.94,0
			C70.19,49.69,70.34,49.69,70.5,49.69z M105.4,105.05c0-20.06,0-40.07,0-60.09c-11.22,0-22.41,0-33.6,0c0,20.04,0,40.06,0,60.09
			C83.02,105.05,94.2,105.05,105.4,105.05z M70.51,55.56c-0.24-0.04-0.43-0.08-0.63-0.1c-3.43-0.45-6.86-0.65-10.32-0.5
			c-2.27,0.1-4.5,0.43-6.66,1.16c-2.96,1-5.47,2.65-7.34,5.19c-2.07,2.8-2.99,6-3.3,9.41c-0.26,2.87,0,5.7,0.73,8.49
			c0.87,3.33,2.05,6.53,4.04,9.38c1.34,1.91,2.97,3.54,4.99,4.72c4.16,2.43,8.57,2.83,13.17,1.53c0.74-0.21,1.44-0.52,2.16-0.79
			c0.45-0.17,0.87,0.05,0.94,0.49c0.04,0.29-0.13,0.55-0.5,0.71c-2.03,0.9-4.15,1.4-6.37,1.53c-4.01,0.23-7.7-0.71-11.01-3
			c-2.02-1.39-3.64-3.18-4.96-5.24c-1.43-2.25-2.43-4.68-3.2-7.22c-0.23-0.76-0.43-1.53-0.67-2.4c-0.01,0.17-0.02,0.23-0.02,0.29
			c0,6.03,0,12.05,0,18.08c0,1.01,0.74,1.74,1.76,1.75c1.66,0,3.33,0,4.99,0c7.23,0,14.47,0,21.7,0c0.15,0,0.31,0,0.49,0
			c0-3.23,0-6.43,0-9.64c-0.5,0.33-0.95,0.66-1.44,0.95c-2.08,1.23-4.34,1.9-6.73,2.16c-3.9,0.43-7.53-0.33-10.8-2.53
			c-1.34-0.9-2.49-2.04-3.38-3.4c-1.44-2.21-2.47-4.61-3.1-7.18c-0.99-3.99-0.91-7.95,0.39-11.87c1.16-3.53,3.29-6.26,6.56-8.04
			c2.98-1.62,6.22-2.19,9.57-2.29c0.39-0.01,0.65,0.25,0.66,0.61c0.01,0.37-0.25,0.62-0.65,0.66c-1.41,0.15-2.83,0.23-4.22,0.48
			c-2.57,0.47-4.94,1.44-6.94,3.18c-0.8,0.69-1.63,1.38-1.94,2.46c-0.24,0.86-0.49,1.71-0.65,2.59c-0.13,0.71-0.12,1.45,0.16,2.14
			c0.24,0.59,0.64,0.96,1.31,0.93c0.27-0.01,0.54,0.02,0.8-0.01c1.45-0.16,2.9-0.32,4.35-0.5c0.63-0.08,1.12-0.41,1.49-0.93
			c0.23-0.33,0.49-0.64,0.71-0.97c0.45-0.7,0.98-1.38,1.11-2.23c0.24-1.52,0.99-2.73,2.17-3.69c0.79-0.65,1.7-1.05,2.71-1.24
			c0.28-0.05,0.54-0.03,0.73,0.22c0.23,0.3,0.2,0.6-0.09,0.9c-0.67,0.69-1.32,1.39-1.76,2.26c-0.09,0.19-0.15,0.4-0.22,0.6
			c0.21-0.06,0.36-0.16,0.5-0.26c0.58-0.42,1.14-0.86,1.74-1.25c0.68-0.45,1.42-0.74,2.24-0.81c0.39-0.04,0.82-0.1,1,0.38
			c0.18,0.47-0.15,0.71-0.47,0.96c-1.51,1.21-2.95,2.49-4.17,4c-0.27,0.34-0.51,0.71-0.81,1.13c0.54-0.06,0.97-0.11,1.4-0.14
			c1.61-0.13,3.22-0.25,4.84-0.36c0.4-0.03,0.69,0.25,0.7,0.6c0.02,0.35-0.26,0.63-0.65,0.66c-2.33,0.2-4.67,0.41-7,0.61
			c-0.69,0.06-1.03-0.31-0.79-0.94c0.24-0.62,0.54-1.22,0.9-1.78c0.37-0.58,0.84-1.09,1.3-1.66c-0.13,0.06-0.21,0.11-0.3,0.14
			c-0.68,0.28-1.37-0.02-1.58-0.72c-0.08-0.27-0.1-0.58-0.05-0.85c0.08-0.42,0.26-0.81,0.41-1.26c-0.76,0.71-1.26,1.52-1.45,2.52
			c-0.07,0.39-0.15,0.81-0.34,1.14c-0.56,0.96-1.15,1.91-1.78,2.83c-0.6,0.88-1.5,1.32-2.54,1.43c-1.57,0.17-3.15,0.33-4.72,0.47
			c-1.48,0.13-2.52-0.57-2.96-1.99c-0.09-0.29-0.15-0.6-0.23-0.94c-0.04,0.13-0.07,0.22-0.09,0.31c-0.48,1.98-0.59,3.98-0.41,6.01
			c0.2,2.24,0.54,4.45,1.21,6.6c0.02,0.08,0.06,0.16,0.1,0.26c0.04-0.59,0.05-1.14,0.12-1.68c0.27-1.98,1.1-3.64,2.77-4.8
			c1.21-0.85,2.58-1.36,3.99-1.75c2.83-0.78,5.73-1.11,8.64-1.35c0.75-0.06,1.47,0.12,2.11,0.52c0.49,0.31,0.98,0.62,1.43,0.99
			c1.12,0.9,2.02,1.99,2.56,3.34c0.15,0.38,0.02,0.73-0.31,0.87c-0.32,0.15-0.7,0-0.85-0.36c-0.67-1.57-1.83-2.69-3.23-3.61
			c-0.64-0.42-1.33-0.55-2.07-0.46c-0.94,0.11-1.89,0.2-2.83,0.32c-2,0.26-3.99,0.59-5.92,1.21c-1.13,0.37-2.22,0.83-3.14,1.6
			c-1.38,1.15-1.89,2.7-1.95,4.42c-0.08,2.72,0.89,5.07,2.73,7.05c1.22,1.31,2.81,2.07,4.5,2.58c3.87,1.18,7.65,0.83,11.33-0.77
			c1.15-0.5,2.21-1.16,3.09-2.08c0.18-0.18,0.24-0.37,0.24-0.62c-0.01-4.49,0-8.97,0-13.46c0-5.92,0-11.83,0-17.75
			C70.51,55.86,70.51,55.73,70.51,55.56z M106.73,105.22c0.81,0,1.6-0.01,2.39,0c3.01,0.05,5.44-2.44,5.43-5.43
			c-0.02-10.18-0.01-20.36-0.01-30.54c0-6.4,0-12.79,0-19.19c0-2.83-2.34-5.21-5.17-5.27c-0.79-0.01-1.58-0.01-2.38-0.01
			c-0.08,0-0.17,0.02-0.26,0.03c0,1.63,0,3.23,0,4.84c0.24,0.04,0.46,0.06,0.68,0.1c1.23,0.26,2.18,1.4,2.23,2.35
			c0.04,0.78,0.08,1.56,0.08,2.34c0.01,7.22,0.01,14.44,0,21.66c0,5.58-0.02,11.16-0.02,16.74c0,1.51,0.03,3.01,0.02,4.52
			c-0.01,1.23-0.61,2.13-1.7,2.66c-0.39,0.19-0.84,0.25-1.28,0.38C106.73,101.97,106.73,103.58,106.73,105.22z M70.51,50.96
			c-0.09,0-0.14,0-0.2,0c-5.85,0-11.69,0-17.54-0.01c-3.1,0-6.2,0-9.31,0c-1.2,0-1.89,0.7-1.89,1.89c0,4.56,0,9.13,0,13.69
			c0,0.08,0.01,0.15,0.02,0.23c0.07-0.12,0.11-0.23,0.14-0.35c0.72-2.57,1.87-4.91,3.65-6.92c2.28-2.56,5.15-4.11,8.43-4.98
			c2.32-0.62,4.69-0.85,7.09-0.87c2.95-0.03,5.89,0.08,8.81,0.54c0.26,0.04,0.52,0.06,0.81,0.09
			C70.51,53.15,70.51,52.07,70.51,50.96z M106.72,50.99c0,16.03,0,32.03,0,48.05c0.1,0,0.18,0.01,0.25,0
			c0.88-0.15,1.46-0.84,1.46-1.76c0-7.17,0-14.35,0-21.52c0-7.64,0-15.29,0-22.93c0-0.1,0-0.2,0-0.3
			C108.38,51.67,107.59,50.95,106.72,50.99z"/>
		<path class="st0" d="M88.88,87.86c-2.44,0-4.89,0-7.33,0c-0.55,0-0.86-0.36-0.73-0.82c0.08-0.27,0.26-0.41,0.52-0.45
			c0.05-0.01,0.11-0.01,0.17-0.01c4.92,0,9.84,0,14.76,0c0.31,0,0.55,0.08,0.68,0.37c0.19,0.43-0.1,0.88-0.58,0.9
			c-0.41,0.01-0.83,0-1.24,0C93.05,87.86,90.96,87.86,88.88,87.86z"/>
		<path class="st0" d="M88.84,84.4c-2.44,0-4.89,0-7.33,0c-0.3,0-0.56-0.05-0.72-0.32c-0.23-0.42,0.05-0.92,0.53-0.95
			c0.18-0.01,0.36,0,0.54,0c4.75,0,9.5,0,14.26,0c0.03,0,0.07,0,0.1,0c0.42,0.01,0.71,0.26,0.71,0.63c0,0.38-0.27,0.64-0.7,0.64
			c-0.7,0.01-1.41,0-2.11,0C92.36,84.4,90.6,84.4,88.84,84.4z"/>
		<path class="st0" d="M88.7,80.95c-1.35,0-2.7,0.01-4.05-0.01c-0.2,0-0.43-0.06-0.59-0.17c-0.22-0.15-0.27-0.41-0.19-0.66
			c0.09-0.28,0.31-0.43,0.61-0.44c0.59-0.01,1.18,0,1.77,0c2.15,0,4.3,0,6.46,0c0.14,0,0.29-0.01,0.43,0.02
			c0.3,0.06,0.46,0.26,0.48,0.56c0.02,0.32-0.12,0.54-0.42,0.64c-0.13,0.05-0.29,0.05-0.43,0.05C91.42,80.95,90.06,80.95,88.7,80.95
			z"/>
		<path class="st0" d="M74.13,93.26c0-0.36,0.26-0.63,0.63-0.64c0.35,0,0.64,0.28,0.64,0.63c0,0.35-0.28,0.64-0.63,0.64
			C74.41,93.9,74.13,93.62,74.13,93.26z"/>
		<path class="st0" d="M74.78,91.1c-0.36,0.01-0.64-0.26-0.65-0.62c-0.01-0.35,0.27-0.65,0.62-0.65c0.35,0,0.64,0.28,0.65,0.63
			C75.41,90.8,75.13,91.09,74.78,91.1z"/>
		<path class="st0" d="M74.76,82.72c-0.37,0-0.63-0.27-0.63-0.63c0-0.36,0.29-0.64,0.64-0.64c0.35,0,0.64,0.3,0.64,0.64
			C75.4,82.45,75.12,82.72,74.76,82.72z"/>
		<path class="st0" d="M74.77,101c0.35,0.01,0.64,0.3,0.63,0.65c-0.01,0.35-0.29,0.63-0.65,0.62c-0.36-0.01-0.63-0.28-0.62-0.64
			C74.14,101.27,74.42,100.99,74.77,101z"/>
		<path class="st0" d="M79.44,48.33c-0.35,0-0.63-0.29-0.63-0.65c0.01-0.36,0.29-0.64,0.64-0.63c0.35,0,0.64,0.3,0.63,0.65
			C80.08,48.04,79.79,48.33,79.44,48.33z"/>
		<path class="st0" d="M102.3,78.5c-0.34-0.01-0.62-0.28-0.62-0.61c0-0.36,0.31-0.67,0.66-0.66c0.35,0.01,0.62,0.31,0.62,0.66
			C102.94,78.25,102.67,78.5,102.3,78.5z"/>
		<path class="st0" d="M74.76,56.32c0.35,0,0.64,0.29,0.64,0.63c0,0.35-0.29,0.64-0.64,0.64c-0.36,0-0.63-0.27-0.63-0.63
			C74.13,56.61,74.41,56.32,74.76,56.32z"/>
		<path class="st0" d="M74.75,47.95c0.35,0,0.64,0.27,0.65,0.62c0.01,0.34-0.28,0.64-0.63,0.65c-0.35,0.01-0.64-0.27-0.65-0.63
			C74.12,48.24,74.39,47.95,74.75,47.95z"/>
		<path class="st0" d="M75.4,84.89c0,0.34-0.3,0.63-0.65,0.63c-0.35,0-0.63-0.29-0.62-0.65c0-0.36,0.28-0.63,0.64-0.63
			C75.13,84.25,75.41,84.54,75.4,84.89z"/>
		<path class="st0" d="M102.31,64.55c-0.34,0-0.64-0.31-0.64-0.65c0-0.35,0.29-0.63,0.65-0.63c0.36,0,0.63,0.27,0.63,0.64
			C102.95,64.27,102.67,64.55,102.31,64.55z"/>
		<path class="st0" d="M86.2,102c0,0.36-0.29,0.65-0.64,0.64c-0.35-0.01-0.64-0.29-0.64-0.64c0-0.35,0.29-0.64,0.64-0.64
			C85.91,101.36,86.2,101.65,86.2,102z"/>
		<path class="st0" d="M102.95,100.21c0,0.35-0.28,0.64-0.64,0.64c-0.34,0-0.64-0.3-0.64-0.65c0-0.35,0.29-0.63,0.65-0.63
			C102.69,99.58,102.95,99.85,102.95,100.21z"/>
		<path class="st0" d="M82.77,102.64c-0.35,0-0.64-0.3-0.64-0.64c0-0.34,0.29-0.64,0.64-0.64c0.35,0,0.63,0.29,0.63,0.64
			C83.41,102.35,83.12,102.64,82.77,102.64z"/>
		<path class="st0" d="M74.79,95.42c0.35,0.01,0.62,0.31,0.61,0.66c-0.01,0.34-0.33,0.63-0.67,0.61c-0.34-0.02-0.62-0.32-0.6-0.67
			C74.15,95.66,74.43,95.41,74.79,95.42z"/>
		<path class="st0" d="M85.67,47.67c0.01,0.36-0.27,0.64-0.62,0.65c-0.34,0.01-0.65-0.29-0.65-0.63c0-0.35,0.29-0.65,0.63-0.65
			C85.38,47.04,85.66,47.32,85.67,47.67z"/>
		<path class="st0" d="M74.75,74.34c-0.36,0-0.63-0.28-0.62-0.64c0-0.35,0.29-0.64,0.64-0.63c0.35,0.01,0.64,0.31,0.63,0.65
			C75.39,74.08,75.11,74.35,74.75,74.34z"/>
		<path class="st0" d="M102.95,75.1c-0.01,0.35-0.31,0.64-0.65,0.62c-0.34-0.01-0.63-0.32-0.62-0.66c0.01-0.34,0.3-0.62,0.66-0.61
			C102.7,74.45,102.96,74.73,102.95,75.1z"/>
		<path class="st0" d="M74.76,75.88c0.37,0,0.64,0.26,0.64,0.62c0,0.36-0.28,0.64-0.63,0.64c-0.35,0-0.63-0.28-0.64-0.63
			C74.13,76.14,74.38,75.88,74.76,75.88z"/>
		<path class="st0" d="M89,102.01c0,0.35-0.29,0.63-0.65,0.63c-0.34,0-0.63-0.29-0.63-0.65c0-0.35,0.29-0.64,0.64-0.63
			C88.71,101.36,89,101.66,89,102.01z"/>
		<path class="st0" d="M93.96,101.36c0.35,0.01,0.63,0.3,0.62,0.66c-0.01,0.35-0.31,0.64-0.65,0.63c-0.35-0.01-0.63-0.32-0.62-0.66
			C93.31,101.64,93.61,101.35,93.96,101.36z"/>
		<path class="st0" d="M102.95,83.47c0,0.36-0.29,0.64-0.64,0.63c-0.34-0.01-0.63-0.31-0.63-0.65c0-0.35,0.29-0.62,0.65-0.62
			C102.69,82.83,102.95,83.09,102.95,83.47z"/>
		<path class="st0" d="M99.5,102.64c-0.35-0.02-0.62-0.31-0.6-0.67c0.01-0.35,0.31-0.62,0.66-0.6c0.35,0.02,0.63,0.33,0.61,0.67
			C100.15,102.38,99.84,102.66,99.5,102.64z"/>
		<path class="st0" d="M102.95,86.24c0,0.38-0.25,0.63-0.63,0.63c-0.35,0-0.65-0.28-0.64-0.63c0-0.35,0.3-0.64,0.64-0.64
			C102.66,85.6,102.95,85.89,102.95,86.24z"/>
		<path class="st0" d="M74.13,98.85c0-0.35,0.28-0.65,0.62-0.65c0.34,0,0.64,0.29,0.65,0.64c0.01,0.35-0.28,0.64-0.63,0.64
			C74.41,99.48,74.13,99.21,74.13,98.85z"/>
		<path class="st0" d="M75.4,87.66c0.01,0.34-0.28,0.65-0.63,0.65c-0.35,0.01-0.64-0.28-0.65-0.63c-0.01-0.36,0.26-0.64,0.62-0.64
			C75.11,87.04,75.39,87.3,75.4,87.66z"/>
		<path class="st0" d="M75.4,59.75c-0.01,0.35-0.3,0.64-0.64,0.64c-0.35,0-0.63-0.29-0.63-0.64c0-0.36,0.27-0.63,0.63-0.63
			C75.11,59.12,75.41,59.41,75.4,59.75z"/>
		<path class="st0" d="M102.94,80.65c0,0.37-0.26,0.64-0.62,0.65c-0.35,0-0.64-0.28-0.65-0.63c-0.01-0.35,0.28-0.64,0.63-0.64
			C102.68,80.02,102.94,80.28,102.94,80.65z"/>
		<path class="st0" d="M75.39,79.31c0,0.34-0.27,0.62-0.61,0.63c-0.37,0.01-0.67-0.27-0.66-0.64c0-0.34,0.27-0.61,0.61-0.62
			C75.12,78.66,75.39,78.92,75.39,79.31z"/>
		<path class="st0" d="M74.75,54.8c-0.37-0.01-0.62-0.27-0.62-0.64c0-0.35,0.3-0.63,0.65-0.63c0.34,0.01,0.63,0.31,0.63,0.65
			C75.4,54.53,75.11,54.8,74.75,54.8z"/>
		<path class="st0" d="M76.67,48.33c-0.34,0.01-0.65-0.29-0.65-0.63c0-0.35,0.28-0.64,0.63-0.64c0.36-0.01,0.63,0.27,0.64,0.63
			C77.3,48.03,77.02,48.32,76.67,48.33z"/>
		<path class="st0" d="M102.33,54.9c0.37,0.01,0.63,0.28,0.62,0.64c0,0.34-0.31,0.64-0.65,0.63c-0.34-0.01-0.63-0.31-0.63-0.66
			C101.68,55.17,101.97,54.9,102.33,54.9z"/>
		<path class="st0" d="M74.15,70.91c0-0.35,0.24-0.62,0.58-0.63c0.35-0.01,0.65,0.27,0.66,0.61c0.01,0.37-0.27,0.66-0.64,0.66
			C74.39,71.55,74.16,71.31,74.15,70.91z"/>
		<path class="st0" d="M102.95,94.62c0,0.37-0.26,0.63-0.63,0.63c-0.35,0-0.64-0.29-0.64-0.64c0-0.34,0.3-0.64,0.64-0.64
			C102.66,93.97,102.95,94.27,102.95,94.62z"/>
		<path class="st0" d="M102.95,69.5c-0.01,0.36-0.28,0.63-0.64,0.62c-0.35-0.01-0.64-0.3-0.63-0.65c0.02-0.35,0.31-0.64,0.65-0.62
			C102.7,68.87,102.96,69.14,102.95,69.5z"/>
		<path class="st0" d="M102.95,97.43c0,0.36-0.28,0.63-0.64,0.62c-0.35-0.01-0.64-0.3-0.63-0.65c0.01-0.34,0.31-0.63,0.66-0.62
			C102.69,96.78,102.95,97.07,102.95,97.43z"/>
		<path class="st0" d="M74.13,68.14c-0.01-0.37,0.25-0.64,0.62-0.64c0.36-0.01,0.65,0.27,0.65,0.62c0,0.35-0.28,0.64-0.63,0.65
			C74.43,68.78,74.14,68.49,74.13,68.14z"/>
		<path class="st0" d="M102.95,66.75c-0.02,0.35-0.32,0.6-0.68,0.58c-0.33-0.02-0.61-0.32-0.59-0.65c0.01-0.36,0.34-0.65,0.7-0.62
			C102.73,66.1,102.97,66.39,102.95,66.75z"/>
		<path class="st0" d="M74.76,65.96c-0.37,0-0.62-0.26-0.62-0.63c0-0.36,0.28-0.64,0.63-0.63c0.35,0,0.63,0.29,0.63,0.64
			C75.4,65.69,75.12,65.96,74.76,65.96z"/>
		<path class="st0" d="M77.18,101.36c0.35-0.01,0.64,0.28,0.64,0.63c0,0.35-0.28,0.65-0.62,0.65c-0.35,0-0.64-0.28-0.65-0.63
			C76.55,101.65,76.82,101.37,77.18,101.36z"/>
		<path class="st0" d="M79.35,101.98c0.01-0.35,0.3-0.63,0.65-0.61c0.35,0.01,0.63,0.32,0.62,0.66c-0.01,0.35-0.31,0.63-0.66,0.62
			C79.61,102.63,79.34,102.34,79.35,101.98z"/>
		<path class="st0" d="M97.37,102c0,0.36-0.28,0.63-0.64,0.64c-0.35,0-0.63-0.28-0.63-0.64c0-0.35,0.29-0.64,0.63-0.64
			C97.09,101.36,97.37,101.65,97.37,102z"/>
		<path class="st0" d="M102.29,58.95c-0.36-0.01-0.63-0.3-0.61-0.65c0.02-0.35,0.32-0.63,0.66-0.62c0.35,0.02,0.62,0.31,0.61,0.67
			C102.94,58.71,102.66,58.97,102.29,58.95z"/>
		<path class="st0" d="M94.04,47.68c0.01,0.36-0.26,0.64-0.62,0.64c-0.35,0.01-0.64-0.28-0.65-0.63c-0.01-0.34,0.3-0.65,0.63-0.65
			C93.76,47.05,94.03,47.32,94.04,47.68z"/>
		<path class="st0" d="M102.95,61.13c-0.01,0.36-0.28,0.63-0.64,0.62c-0.35-0.01-0.64-0.3-0.63-0.65c0.01-0.34,0.31-0.63,0.66-0.62
			C102.69,60.49,102.96,60.77,102.95,61.13z"/>
		<path class="st0" d="M74.72,63.17c-0.35-0.01-0.61-0.3-0.59-0.67c0.01-0.35,0.32-0.63,0.67-0.6c0.35,0.02,0.62,0.33,0.6,0.67
			C75.38,62.93,75.09,63.19,74.72,63.17z"/>
		<path class="st0" d="M102.32,71.66c0.36,0,0.63,0.28,0.63,0.63c0,0.36-0.28,0.63-0.63,0.63c-0.34,0-0.65-0.31-0.64-0.64
			C101.68,71.93,101.97,71.65,102.32,71.66z"/>
		<path class="st0" d="M102.95,102.02c-0.01,0.36-0.29,0.63-0.65,0.62c-0.35-0.01-0.63-0.31-0.62-0.66
			c0.01-0.35,0.31-0.63,0.66-0.62C102.7,101.37,102.96,101.65,102.95,102.02z"/>
		<path class="st0" d="M102.94,91.82c0,0.39-0.27,0.66-0.65,0.65c-0.33-0.01-0.61-0.3-0.62-0.62c-0.01-0.36,0.29-0.65,0.66-0.64
			C102.69,91.21,102.94,91.46,102.94,91.82z"/>
		<path class="st0" d="M75.4,51.37c0,0.35-0.29,0.64-0.64,0.65c-0.35,0-0.64-0.29-0.64-0.64c0-0.37,0.26-0.63,0.63-0.64
			C75.12,50.74,75.4,51.02,75.4,51.37z"/>
		<path class="st0" d="M101.15,47.66c0.02-0.35,0.32-0.62,0.67-0.61c0.35,0.01,0.62,0.31,0.61,0.66c-0.02,0.35-0.31,0.62-0.66,0.61
			C101.41,48.31,101.13,48,101.15,47.66z"/>
		<path class="st0" d="M102.95,49.93c0,0.37-0.25,0.64-0.61,0.65c-0.35,0.01-0.66-0.27-0.66-0.61c-0.01-0.34,0.28-0.65,0.62-0.66
			C102.65,49.29,102.94,49.57,102.95,49.93z"/>
		<path class="st0" d="M99.64,47.69c0,0.34-0.29,0.63-0.64,0.64c-0.35,0.01-0.63-0.28-0.63-0.64c0-0.36,0.27-0.63,0.63-0.63
			C99.35,47.06,99.64,47.34,99.64,47.69z"/>
		<path class="st0" d="M96.83,47.67c0,0.37-0.24,0.64-0.61,0.65c-0.35,0.01-0.64-0.26-0.65-0.62c-0.01-0.36,0.26-0.64,0.62-0.64
			C96.57,47.06,96.82,47.3,96.83,47.67z"/>
		<path class="st0" d="M88.46,47.69c0,0.35-0.29,0.64-0.63,0.64c-0.36,0-0.63-0.27-0.63-0.63c0-0.35,0.28-0.64,0.63-0.64
			C88.18,47.05,88.46,47.33,88.46,47.69z"/>
		<path class="st0" d="M102.95,52.74c0,0.37-0.26,0.63-0.63,0.63c-0.34,0-0.64-0.29-0.64-0.64c-0.01-0.33,0.3-0.64,0.64-0.63
			C102.68,52.11,102.95,52.38,102.95,52.74z"/>
		<path class="st0" d="M91.26,47.67c0.01,0.34-0.28,0.63-0.63,0.65c-0.35,0.01-0.64-0.27-0.64-0.62c-0.01-0.36,0.27-0.64,0.62-0.64
			C90.96,47.05,91.26,47.33,91.26,47.67z"/>
		<path class="st0" d="M102.95,89.06c-0.01,0.36-0.29,0.63-0.65,0.61c-0.35-0.02-0.64-0.32-0.61-0.66c0.02-0.36,0.31-0.62,0.66-0.61
			C102.7,88.42,102.96,88.7,102.95,89.06z"/>
		<path class="st0" d="M91.17,101.36c0.34,0.01,0.64,0.32,0.63,0.65c-0.01,0.35-0.31,0.64-0.65,0.63c-0.35-0.01-0.63-0.3-0.62-0.65
			C90.53,101.63,90.81,101.35,91.17,101.36z"/>
		<path class="st0" d="M82.25,48.33c-0.35,0.01-0.64-0.28-0.64-0.63c0-0.37,0.26-0.64,0.62-0.64c0.36,0,0.64,0.27,0.64,0.62
			C82.88,48.03,82.6,48.32,82.25,48.33z"/>
		<path class="st0" d="M61.04,88.45c-0.68,0.01-1.68-0.23-2.58-0.85c-0.39-0.27-0.49-0.64-0.26-0.97c0.22-0.31,0.6-0.35,0.97-0.1
			c1.08,0.73,2.25,0.77,3.46,0.41c1.43-0.43,2.55-1.3,3.46-2.46c0.09-0.11,0.19-0.23,0.31-0.3c0.26-0.16,0.59-0.08,0.79,0.15
			c0.19,0.23,0.2,0.56-0.01,0.83c-0.89,1.16-1.98,2.09-3.32,2.69C63.09,88.21,62.28,88.41,61.04,88.45z"/>
		<path class="st0" d="M49.88,81.53c0.06-0.32,0.13-0.86,0.25-1.39c0.09-0.37,0.43-0.54,0.78-0.45c0.34,0.09,0.54,0.41,0.44,0.78
			c-0.41,1.47-0.08,2.83,0.58,4.13c0.29,0.58,0.68,1.12,1.04,1.67c0.24,0.36,0.23,0.72-0.06,0.95c-0.28,0.23-0.67,0.19-0.92-0.13
			C50.77,85.53,49.95,83.79,49.88,81.53z"/>
		<path class="st0" d="M49.57,67.28c0.12-1.6,0.93-2.97,2.16-4.12c0.28-0.26,0.57-0.5,0.88-0.72c0.34-0.25,0.72-0.19,0.94,0.12
			c0.2,0.29,0.13,0.66-0.19,0.91c-0.84,0.63-1.59,1.35-2.03,2.31c-0.24,0.53-0.37,1.11-0.48,1.69c-0.08,0.48-0.27,0.77-0.66,0.76
			C49.8,68.22,49.55,67.89,49.57,67.28z"/>
		<circle class="st0" cx="88.68" cy="67.44" r="8.06"/>
	</g>
</g>
</svg>
