<?xml version="1.0" encoding="utf-8"?>
<!-- Generator: Adobe Illustrator 25.0.0, SVG Export Plug-In . SVG Version: 6.00 Build 0)  -->
<svg version="1.1" id="Layer_1" xmlns="http://www.w3.org/2000/svg" xmlns:xlink="http://www.w3.org/1999/xlink" x="0px" y="0px"
	 viewBox="0 0 150 150" style="enable-background:new 0 0 150 150;" xml:space="preserve">
<style type="text/css">
	.st0{fill:#D3E1E1;}
</style>
<g id="t2UpYB_2_">
	<g>
		<path class="st0" d="M86.9,82.33c2.48,0,4.88,0,7.29,0c4.2,0,8.39,0,12.59,0c2.54,0,3.6,1,3.65,3.56
			c0.05,2.8,0.01,17.5,0.01,20.38c0,2.91-0.9,3.83-3.78,3.83c-21.12,0-42.25,0-63.37,0c-2.85,0-3.74-0.88-3.74-3.68
			c0-6.8,0-13.6,0-20.4c0-2.84,0.84-3.67,3.71-3.69c0.47,0,0.94,0,1.54,0c0.28-3.19,0.56-6.25,0.82-9.31
			c0.82-9.75,1.62-19.51,2.45-29.26c0.27-3.18,1-3.84,4.15-3.84c1.93,0,3.86-0.02,5.79,0c2.05,0.02,3.01,0.88,3.26,2.9
			c1.54,12.68,3.08,25.36,4.62,38.04c0.05,0.42,0.13,0.85,0.21,1.37c1.47,0,2.89,0,4.43,0c0.08-0.3,0.22-0.65,0.25-1.01
			c0.71-8.41,1.43-16.81,2.11-25.22c0.26-3.2,1-3.94,4.21-3.95c1.01,0,2.03-0.02,3.04,0c2.19,0.05,3.13,0.93,3.4,3.12
			c1.07,8.85,2.14,17.71,3.22,26.56C86.76,81.86,86.81,81.99,86.9,82.33z M74.97,107.93c10.42,0,20.83,0,31.25,0
			c2.04,0,2.04,0,2.04-2.09c0-6.55-0.03-13.11,0.03-19.66c0.01-1.34-0.4-1.74-1.73-1.74c-21.07,0.03-42.14,0.03-63.21,0
			c-1.32,0-1.75,0.41-1.74,1.75c0.06,6.61,0.02,13.21,0.02,19.82c0,1.92,0.01,1.92,1.94,1.92
			C54.05,107.93,64.51,107.93,74.97,107.93z M63.87,82.24c-0.59-4.94-1.15-9.76-1.78-14.58c-0.04-0.27-0.64-0.65-0.99-0.67
			c-1.73-0.07-3.47-0.03-5.21-0.03c-2.5,0-4.99,0-7.6,0c-0.44,5.17-0.86,10.18-1.29,15.28C52.71,82.24,58.23,82.24,63.87,82.24z
			 M49.68,50.38c-0.41,4.88-0.81,9.59-1.2,14.33c4.55,0,8.86,0,13.27,0c-0.55-4.56-1.06-9.01-1.66-13.44
			c-0.04-0.33-0.63-0.84-0.97-0.85C56.05,50.35,52.97,50.38,49.68,50.38z M72.85,82.21c4.01,0,7.83,0,11.78,0
			c-0.38-3.13-0.75-6.12-1.13-9.19c-3.14,0-6.12-0.02-9.1,0.04c-0.3,0.01-0.81,0.52-0.84,0.84C73.28,76.62,73.08,79.36,72.85,82.21z
			 M83.23,70.76c-0.38-3.24-0.73-6.3-1.13-9.35c-0.04-0.32-0.43-0.85-0.67-0.86c-2.24-0.07-4.48-0.04-6.77-0.04
			c-0.29,3.56-0.56,6.88-0.84,10.25C77.05,70.76,80.06,70.76,83.23,70.76z M49.89,48.1c3.37,0,6.56,0,9.84,0
			c-0.2-1.73-0.31-3.37-0.62-4.97c-0.08-0.42-0.75-1.01-1.18-1.03c-2.16-0.11-4.33-0.11-6.49,0c-0.41,0.02-1.05,0.66-1.12,1.09
			C50.07,44.75,50.03,46.34,49.89,48.1z M81.72,58.27c-0.14-1.13-0.16-2.11-0.42-3.02c-0.11-0.41-0.67-0.95-1.06-0.98
			c-1.34-0.12-2.69-0.09-4.03-0.01c-0.36,0.02-0.95,0.42-1.01,0.72c-0.21,1.05-0.23,2.14-0.32,3.28
			C77.24,58.27,79.38,58.27,81.72,58.27z"/>
		<path class="st0" d="M65.62,89.2c0.82,0,1.63-0.02,2.45,0.01c0.38,0.01,0.78,0.04,1.14,0.16c1.43,0.48,2.03,2.19,1.8,5.04
			c-0.15,1.82-0.95,2.92-2.49,3.02c-1.92,0.12-3.85,0.12-5.77,0c-1.46-0.09-2.32-1.1-2.42-2.58C60.03,90.5,60.31,88.74,65.62,89.2z
			 M65.63,95.36c3.47,0,3.44,0,3.22-2.94c-0.06-0.8-0.37-1.14-1.13-1.15c-1.44,0-2.89-0.04-4.32,0.05
			c-0.34,0.02-0.87,0.47-0.94,0.81c-0.58,2.65-0.1,3.22,2.59,3.22C65.24,95.36,65.44,95.36,65.63,95.36z"/>
		<path class="st0" d="M81.81,89.16c0.67,0,1.35-0.03,2.02,0.01c0.53,0.03,1.11,0,1.56,0.22c2.58,1.25,1.56,3.66,1.66,5.65
			c0.07,1.33-1.12,2.37-2.57,2.44c-1.83,0.08-3.66,0.02-5.49,0.01c-0.14,0-0.29-0.05-0.43-0.08c-1.86-0.46-2.55-2.27-2.15-5.63
			c0.19-1.56,1.3-2.56,2.94-2.6C80.17,89.15,80.99,89.17,81.81,89.16C81.81,89.17,81.81,89.16,81.81,89.16z M81.82,95.35
			c3.37-0.08,3.14,0.63,3.16-2.85c0.01-0.9-0.38-1.3-1.33-1.23c-0.86,0.07-1.73,0.02-2.59,0.01c-2.51-0.03-2.44-0.03-2.5,2.46
			c-0.03,1.3,0.44,1.75,1.67,1.62C80.76,95.31,81.3,95.35,81.82,95.35z"/>
		<path class="st0" d="M50.41,89.18c3.95-0.17,5.43,0.2,5.12,5.02c-0.15,2.26-0.95,3.26-3.22,3.32c-1.44,0.04-2.89,0.04-4.33,0
			c-2.07-0.06-3.08-1.11-3.14-3.15C44.73,90.61,44.7,88.74,50.41,89.18z M50.21,95.36c3.5-0.08,3.23,0.59,3.24-2.76
			c0-0.9-0.32-1.34-1.27-1.32c-1.35,0.03-2.7-0.05-4.04,0.05c-0.39,0.03-0.99,0.47-1.07,0.81c-0.6,2.68-0.13,3.23,2.56,3.23
			C49.83,95.36,50.02,95.36,50.21,95.36z"/>
		<path class="st0" d="M98.67,97.52c-0.05,0-0.1,0-0.14,0c-4.76-0.01-5.38-0.66-5.14-5.49c0.08-1.65,1.06-2.76,2.68-2.83
			c1.77-0.08,3.56-0.09,5.33-0.01c1.59,0.07,2.68,1.24,2.7,2.84C104.14,96.25,104.29,97.8,98.67,97.52z M98.7,95.36
			c3.45,0,3.45,0,3.22-2.92c-0.01-0.1,0.03-0.23-0.02-0.28c-0.3-0.3-0.6-0.82-0.93-0.84c-1.48-0.09-2.98-0.09-4.46,0
			c-0.35,0.02-0.87,0.46-0.96,0.8c-0.67,2.4-0.03,3.22,2.43,3.23C98.22,95.37,98.46,95.37,98.7,95.36z"/>
	</g>
</g>
</svg>
