<?xml version="1.0" encoding="utf-8"?>
<!-- Generator: Adobe Illustrator 25.0.0, SVG Export Plug-In . SVG Version: 6.00 Build 0)  -->
<svg version="1.1" id="Layer_1" xmlns="http://www.w3.org/2000/svg" xmlns:xlink="http://www.w3.org/1999/xlink" x="0px" y="0px"
	 viewBox="0 0 150 150" style="enable-background:new 0 0 150 150;" xml:space="preserve">
<style type="text/css">
	.st0{fill:#D3E1E1;}
</style>
<g id="FicBnx_2_">
	<g>
		<path class="st0" d="M67.28,42.08c14.53,0.06,26.11,12.54,25,27c-0.33,4.25-1.65,8.18-3.98,11.74c-0.41,0.63-0.42,1.14-0.12,1.74
			c0.8,1.64,1.95,2.91,3.46,4.01c3.21,2.35,6.29,4.87,9.37,7.38c1.62,1.32,3.17,2.73,4.7,4.16c2.66,2.48,2.77,6.48,0.29,8.99
			c-2.52,2.55-6.58,2.51-9.04-0.26c-3.42-3.84-6.73-7.78-10.05-11.71c-0.61-0.73-1.06-1.6-1.56-2.42c-1.04-1.73-2.59-2.81-4.41-3.56
			c-0.67-0.28-1.23-0.17-1.87,0.17c-11.09,5.88-24.59,2.79-32.02-7.32c-11.07-15.05-2-36.82,16.48-39.53
			C64.76,42.27,66.02,42.2,67.28,42.08z M89.66,67.23c-0.04-12.41-10.09-22.43-22.47-22.4c-12.3,0.03-22.31,10.12-22.3,22.48
			c0.01,12.29,10.16,22.35,22.48,22.28C79.68,89.52,89.7,79.47,89.66,67.23z M101.44,106.51c0.05-0.09,0.1-0.17,0.15-0.26
			c1.42-0.01,2.72-0.89,3.26-2.22c0.56-1.4,0.26-2.88-0.99-3.97c-3.85-3.36-7.72-6.69-11.64-9.97c-1.61-1.35-1.7-1.31-3.12,0.2
			c-1.48,1.58-1.65,1.2-0.21,2.96c3.27,4.01,6.66,7.92,10.1,11.79C99.58,105.73,100.61,106.03,101.44,106.51z M88.16,87.4
			c-0.81-1.14-1.56-2.19-2.32-3.27c-0.99,0.92-1.99,1.86-2.98,2.78c1.17,0.82,2.29,1.6,3.34,2.34
			C86.86,88.62,87.51,88.01,88.16,87.4z"/>
		<path class="st0" d="M83.35,122.29c0.2-0.12,0.39-0.24,0.6-0.37c0,0.05,0.04,0.22-0.01,0.26c-0.16,0.11-0.36,0.17-0.54,0.25
			C83.38,122.38,83.36,122.33,83.35,122.29z"/>
		<path class="st0" d="M67.23,47.82c13.21-0.02,22.67,12.9,18.48,25.39c-2.39,7.11-7.4,11.6-14.76,13.01
			c-7.49,1.43-13.82-1-18.75-6.84c-2.93-3.48-4.27-7.58-4.3-12.12c-0.01-1.2,0.47-1.83,1.34-1.82c0.83,0.01,1.3,0.61,1.3,1.76
			c0.01,4.08,1.35,7.71,3.96,10.78c5.86,6.9,15.71,7.88,22.76,2.63c5.81-4.33,8.18-11.89,5.88-18.72
			c-2.28-6.79-8.77-11.49-15.91-11.42c-5.04,0.06-9.27,2.01-12.62,5.82c-0.09,0.1-0.17,0.2-0.26,0.3c-0.76,0.89-1.56,1.07-2.2,0.51
			c-0.65-0.57-0.59-1.35,0.18-2.27C56.01,50.38,61.42,47.83,67.23,47.82z"/>
	</g>
</g>
</svg>
