<?xml version="1.0" encoding="utf-8"?>
<!-- Generator: Adobe Illustrator 25.0.0, SVG Export Plug-In . SVG Version: 6.00 Build 0)  -->
<svg version="1.1" id="Layer_1" xmlns="http://www.w3.org/2000/svg" xmlns:xlink="http://www.w3.org/1999/xlink" x="0px" y="0px"
	 viewBox="0 0 150 150" style="enable-background:new 0 0 150 150;" xml:space="preserve">
<style type="text/css">
	.st0{fill:#D3E1E1;}
</style>
<g id="PeQBZB_2_">
	<g>
		<path class="st0" d="M75.03,44.8c10.36,0,20.71-0.01,31.07,0c6.43,0.01,10.04,3.61,10.04,10.06c0.02,13.71,0.01,27.43,0,41.14
			c0,5.36-3.55,9.13-8.94,9.15c-21.47,0.06-42.94,0.06-64.42,0c-5.4-0.02-8.93-3.77-8.93-9.15c-0.01-13.87-0.01-27.73,0-41.6
			c0-6.07,3.5-9.58,9.66-9.59C54.02,44.79,64.52,44.8,75.03,44.8z M75.07,48.46c-10.59,0-21.18-0.02-31.77,0.01
			c-3.88,0.01-5.79,1.93-5.79,5.71c-0.01,13.87-0.01,27.75,0,41.62c0,3.69,1.88,5.7,5.57,5.7c21.26,0.03,42.51,0.03,63.77,0
			c3.72,0,5.63-1.99,5.63-5.64c0.01-13.65,0.01-27.29,0-40.94c0-4.61-1.89-6.47-6.56-6.47C95.64,48.46,85.36,48.46,75.07,48.46z"/>
		<path class="st0" d="M46.81,59.55c1.81,0,3.45,0,5.21,0c0,10.28,0,20.46,0,30.82c-1.66,0-3.35,0-5.21,0
			C46.81,80.19,46.81,69.96,46.81,59.55z"/>
		<path class="st0" d="M53.96,59.55c0.62,0,1.19,0,1.79,0c0,10.28,0,20.46,0,30.82c-0.57,0-1.15,0-1.79,0
			C53.96,80.19,53.96,69.96,53.96,59.55z"/>
		<path class="st0" d="M57.61,59.55c0.62,0,1.19,0,1.79,0c0,10.28,0,20.46,0,30.82c-0.57,0-1.15,0-1.79,0
			C57.61,80.19,57.61,69.96,57.61,59.55z"/>
		<path class="st0" d="M70.5,59.55c0.62,0,1.19,0,1.79,0c0,10.28,0,20.46,0,30.82c-0.57,0-1.15,0-1.79,0
			C70.5,80.19,70.5,69.96,70.5,59.55z"/>
		<path class="st0" d="M81.39,59.55c0.62,0,1.19,0,1.79,0c0,10.28,0,20.46,0,30.82c-0.57,0-1.15,0-1.79,0
			C81.39,80.19,81.39,69.96,81.39,59.55z"/>
		<path class="st0" d="M86.87,59.55c0.62,0,1.19,0,1.79,0c0,10.28,0,20.46,0,30.82c-0.57,0-1.15,0-1.79,0
			C86.87,80.19,86.87,69.96,86.87,59.55z"/>
		<path class="st0" d="M97.91,59.55c0.62,0,1.19,0,1.79,0c0,10.28,0,20.46,0,30.82c-0.57,0-1.15,0-1.79,0
			C97.91,80.19,97.91,69.96,97.91,59.55z"/>
		<path class="st0" d="M101.5,59.55c0.62,0,1.19,0,1.79,0c0,10.28,0,20.46,0,30.82c-0.57,0-1.15,0-1.79,0
			C101.5,80.19,101.5,69.96,101.5,59.55z"/>
		<path class="st0" d="M63.27,59.55c1.81,0,3.45,0,5.21,0c0,10.28,0,20.46,0,30.82c-1.65,0-3.35,0-5.21,0
			C63.27,80.19,63.27,69.96,63.27,59.55z"/>
		<path class="st0" d="M74.24,59.55c1.81,0,3.46,0,5.22,0c0,10.28,0,20.46,0,30.82c-1.66,0-3.36,0-5.22,0
			C74.24,80.19,74.24,69.96,74.24,59.55z"/>
		<path class="st0" d="M90.59,90.35c0-10.31,0-20.44,0-30.73c1.74,0,3.44,0,5.29,0c0,10.19,0,20.42,0,30.73
			C94.1,90.35,92.36,90.35,90.59,90.35z"/>
	</g>
</g>
</svg>
